M48
; DRILL file {KiCad 9.0.7} date 2026-01-16T22:33:28-0500
; FORMAT={-:-/ absolute / metric / decimal}
; #@! TF.CreationDate,2026-01-16T22:33:28-05:00
; #@! TF.GenerationSoftware,Kicad,Pcbnew,9.0.7
; #@! TF.FileFunction,Plated,1,2,PTH
FMAT,2
METRIC
; #@! TA.AperFunction,Plated,PTH,ComponentDrill
T1C0.889
; #@! TA.AperFunction,Plated,PTH,ComponentDrill
T2C1.000
; #@! TA.AperFunction,Plated,PTH,ComponentDrill
T3C1.500
%
G90
G05
T1
X138.0Y-89.06
X138.0Y-91.6
X138.0Y-94.14
X138.0Y-96.68
X138.0Y-99.22
X138.0Y-101.76
X138.0Y-104.3
X153.24Y-89.06
X153.24Y-91.6
X153.24Y-94.14
X153.24Y-96.68
X153.24Y-99.22
X153.24Y-101.76
X153.24Y-104.3
T2
X134.115Y-88.405
X134.115Y-90.945
X134.115Y-93.485
X134.115Y-96.025
T3
X103.346Y-114.141
X103.346Y-133.191
X109.696Y-111.601
X109.696Y-130.651
X122.396Y-114.141
X122.396Y-133.191
X128.746Y-111.601
X128.746Y-130.651
X141.446Y-114.141
X141.446Y-133.191
X147.796Y-111.601
X147.796Y-130.651
M30
